<svg width="146" height="13" viewBox="0 0 146 13" fill="none" xmlns="http://www.w3.org/2000/svg">
<path d="M3.7 2.83256H0.08V0.372558H10.48V2.83256H6.86V11.8726H3.7V2.83256ZM17.5311 12.0926C16.3044 12.0926 15.1978 11.8392 14.2111 11.3326C13.2378 10.8126 12.4711 10.0992 11.9111 9.19256C11.3511 8.28589 11.0711 7.26589 11.0711 6.13256C11.0711 4.99923 11.3511 3.97922 11.9111 3.07256C12.4711 2.15256 13.2378 1.43922 14.2111 0.932558C15.1978 0.412558 16.3044 0.152558 17.5311 0.152558C18.7578 0.152558 19.8578 0.412558 20.8311 0.932558C21.8178 1.43922 22.5911 2.15256 23.1511 3.07256C23.7111 3.97922 23.9911 4.99923 23.9911 6.13256C23.9911 7.26589 23.7111 8.28589 23.1511 9.19256C22.5911 10.0992 21.8178 10.8126 20.8311 11.3326C19.8578 11.8392 18.7578 12.0926 17.5311 12.0926ZM17.5311 9.51256C18.1444 9.51256 18.6978 9.36589 19.1911 9.07256C19.6978 8.77923 20.0911 8.37923 20.3711 7.87256C20.6511 7.35256 20.7911 6.77256 20.7911 6.13256C20.7911 5.47922 20.6511 4.89922 20.3711 4.39256C20.0911 3.87256 19.6978 3.46589 19.1911 3.17256C18.6978 2.87922 18.1444 2.73256 17.5311 2.73256C16.9178 2.73256 16.3578 2.87922 15.8511 3.17256C15.3578 3.46589 14.9644 3.87256 14.6711 4.39256C14.3911 4.89922 14.2511 5.47922 14.2511 6.13256C14.2511 6.77256 14.3911 7.35256 14.6711 7.87256C14.9644 8.37923 15.3578 8.77923 15.8511 9.07256C16.3578 9.36589 16.9178 9.51256 17.5311 9.51256ZM31.5475 12.0926C29.8408 12.0926 28.5075 11.6326 27.5475 10.7126C26.5875 9.79256 26.1075 8.52589 26.1075 6.91256V0.372558H29.2675V6.81256C29.2675 7.70589 29.4608 8.37923 29.8475 8.83256C30.2475 9.28589 30.8275 9.51256 31.5875 9.51256C32.3342 9.51256 32.9008 9.28589 33.2875 8.83256C33.6742 8.37923 33.8675 7.70589 33.8675 6.81256V0.372558H36.9875V6.91256C36.9875 8.52589 36.5075 9.79256 35.5475 10.7126C34.5875 11.6326 33.2542 12.0926 31.5475 12.0926ZM45.0384 8.79256H43.0984V11.8726H39.9384V0.372558H45.1784C46.7651 0.372558 48.0251 0.752558 48.9584 1.51256C49.8918 2.25923 50.3584 3.29256 50.3584 4.61256C50.3584 5.45256 50.1518 6.18589 49.7384 6.81256C49.3384 7.42589 48.7651 7.90589 48.0184 8.25256L50.5784 11.8726H47.1784L45.0384 8.79256ZM47.1784 4.61256C47.1784 4.03922 46.9918 3.59922 46.6184 3.29256C46.2451 2.98589 45.6918 2.83256 44.9584 2.83256H43.0984V6.39256H44.9584C45.6918 6.39256 46.2451 6.23922 46.6184 5.93256C46.9918 5.62589 47.1784 5.18589 47.1784 4.61256Z" fill="#FF800B"/>
<path d="M58.3895 12.0926C57.1762 12.0926 56.0829 11.8392 55.1095 11.3326C54.1362 10.8126 53.3695 10.0992 52.8095 9.19256C52.2495 8.28589 51.9695 7.26589 51.9695 6.13256C51.9695 4.99923 52.2495 3.97922 52.8095 3.07256C53.3695 2.15256 54.1362 1.43922 55.1095 0.932558C56.0829 0.412558 57.1762 0.152558 58.3895 0.152558C59.4962 0.152558 60.4495 0.319225 61.2495 0.652558C62.0629 0.985891 62.7629 1.51922 63.3495 2.25256L61.3095 4.11256C60.5495 3.19256 59.6162 2.73256 58.5095 2.73256C57.5362 2.73256 56.7295 3.04589 56.0895 3.67256C55.4629 4.29923 55.1495 5.11923 55.1495 6.13256C55.1495 6.79923 55.2895 7.39256 55.5695 7.91256C55.8629 8.41923 56.2629 8.81256 56.7695 9.09256C57.2895 9.37256 57.8695 9.51256 58.5095 9.51256C59.6162 9.51256 60.5495 9.05256 61.3095 8.13256L63.3495 9.99256C62.7762 10.7126 62.0762 11.2459 61.2495 11.5926C60.4362 11.9259 59.4829 12.0926 58.3895 12.0926ZM70.6561 12.0926C69.4294 12.0926 68.3228 11.8392 67.3361 11.3326C66.3628 10.8126 65.5961 10.0992 65.0361 9.19256C64.4761 8.28589 64.1961 7.26589 64.1961 6.13256C64.1961 4.99923 64.4761 3.97922 65.0361 3.07256C65.5961 2.15256 66.3628 1.43922 67.3361 0.932558C68.3228 0.412558 69.4294 0.152558 70.6561 0.152558C71.8828 0.152558 72.9828 0.412558 73.9561 0.932558C74.9428 1.43922 75.7161 2.15256 76.2761 3.07256C76.8361 3.97922 77.1161 4.99923 77.1161 6.13256C77.1161 7.26589 76.8361 8.28589 76.2761 9.19256C75.7161 10.0992 74.9428 10.8126 73.9561 11.3326C72.9828 11.8392 71.8828 12.0926 70.6561 12.0926ZM70.6561 9.51256C71.2694 9.51256 71.8228 9.36589 72.3161 9.07256C72.8228 8.77923 73.2161 8.37923 73.4961 7.87256C73.7761 7.35256 73.9161 6.77256 73.9161 6.13256C73.9161 5.47922 73.7761 4.89922 73.4961 4.39256C73.2161 3.87256 72.8228 3.46589 72.3161 3.17256C71.8228 2.87922 71.2694 2.73256 70.6561 2.73256C70.0428 2.73256 69.4828 2.87922 68.9761 3.17256C68.4828 3.46589 68.0894 3.87256 67.7961 4.39256C67.5161 4.89922 67.3761 5.47922 67.3761 6.13256C67.3761 6.77256 67.5161 7.35256 67.7961 7.87256C68.0894 8.37923 68.4828 8.77923 68.9761 9.07256C69.4828 9.36589 70.0428 9.51256 70.6561 9.51256ZM89.8725 11.8726L89.8525 5.59256L86.7725 10.6526H85.3525L82.2925 5.79256V11.8726H79.3525V0.372558H81.9925L86.1125 7.05256L90.1325 0.372558H92.7925L92.8325 11.8726H89.8725ZM101.135 0.372558C102.722 0.372558 103.982 0.752558 104.915 1.51256C105.849 2.25923 106.315 3.29256 106.315 4.61256C106.315 5.91923 105.849 6.95256 104.915 7.71256C103.982 8.45923 102.722 8.83256 101.135 8.83256H99.0555V11.8726H95.8955V0.372558H101.135ZM100.915 6.39256C101.649 6.39256 102.202 6.23922 102.575 5.93256C102.949 5.62589 103.135 5.18589 103.135 4.61256C103.135 4.03922 102.949 3.59922 102.575 3.29256C102.202 2.98589 101.649 2.83256 100.915 2.83256H99.0555V6.39256H100.915ZM115.411 9.59256H110.031L109.071 11.8726H106.011L111.171 0.372558H114.291L119.471 11.8726H116.351L115.411 9.59256ZM114.451 7.31256L112.731 3.15256L110.991 7.31256H114.451ZM131.837 0.372558V11.8726H129.237L123.937 5.53256V11.8726H120.837V0.372558H123.437L128.737 6.73256V0.372558H131.837ZM140.959 8.05256V11.8726H137.799V8.05256L133.159 0.372558H136.499L139.479 5.27256L142.439 0.372558H145.619L140.959 8.05256Z" fill="white"/>
</svg>
