<svg width="146" height="13" viewBox="0 0 146 13" fill="none" xmlns="http://www.w3.org/2000/svg">
<path d="M3.67302 3.30839H0.0530225V0.848388H10.453V3.30839H6.83302V12.3484H3.67302V3.30839ZM17.5041 12.5684C16.2774 12.5684 15.1708 12.3151 14.1841 11.8084C13.2108 11.2884 12.4441 10.5751 11.8841 9.66839C11.3241 8.76172 11.0441 7.74172 11.0441 6.60839C11.0441 5.47506 11.3241 4.45506 11.8841 3.54839C12.4441 2.62839 13.2108 1.91505 14.1841 1.40839C15.1708 0.888388 16.2774 0.628388 17.5041 0.628388C18.7308 0.628388 19.8308 0.888388 20.8041 1.40839C21.7908 1.91505 22.5641 2.62839 23.1241 3.54839C23.6841 4.45506 23.9641 5.47506 23.9641 6.60839C23.9641 7.74172 23.6841 8.76172 23.1241 9.66839C22.5641 10.5751 21.7908 11.2884 20.8041 11.8084C19.8308 12.3151 18.7308 12.5684 17.5041 12.5684ZM17.5041 9.98839C18.1174 9.98839 18.6708 9.84172 19.1641 9.54839C19.6708 9.25506 20.0641 8.85506 20.3441 8.34839C20.6241 7.82839 20.7641 7.24839 20.7641 6.60839C20.7641 5.95505 20.6241 5.37505 20.3441 4.86839C20.0641 4.34839 19.6708 3.94172 19.1641 3.64839C18.6708 3.35505 18.1174 3.20839 17.5041 3.20839C16.8908 3.20839 16.3308 3.35505 15.8241 3.64839C15.3308 3.94172 14.9374 4.34839 14.6441 4.86839C14.3641 5.37505 14.2241 5.95505 14.2241 6.60839C14.2241 7.24839 14.3641 7.82839 14.6441 8.34839C14.9374 8.85506 15.3308 9.25506 15.8241 9.54839C16.3308 9.84172 16.8908 9.98839 17.5041 9.98839ZM31.5205 12.5684C29.8139 12.5684 28.4805 12.1084 27.5205 11.1884C26.5605 10.2684 26.0805 9.00172 26.0805 7.38839V0.848388H29.2405V7.28839C29.2405 8.18172 29.4339 8.85506 29.8205 9.30839C30.2205 9.76172 30.8005 9.98839 31.5605 9.98839C32.3072 9.98839 32.8739 9.76172 33.2605 9.30839C33.6472 8.85506 33.8405 8.18172 33.8405 7.28839V0.848388H36.9605V7.38839C36.9605 9.00172 36.4805 10.2684 35.5205 11.1884C34.5605 12.1084 33.2272 12.5684 31.5205 12.5684ZM45.0115 9.26839H43.0715V12.3484H39.9115V0.848388H45.1515C46.7381 0.848388 47.9981 1.22839 48.9315 1.98839C49.8648 2.73506 50.3315 3.76839 50.3315 5.08839C50.3315 5.92839 50.1248 6.66172 49.7115 7.28839C49.3115 7.90172 48.7381 8.38172 47.9915 8.72839L50.5515 12.3484H47.1515L45.0115 9.26839ZM47.1515 5.08839C47.1515 4.51506 46.9648 4.07505 46.5915 3.76839C46.2181 3.46172 45.6648 3.30839 44.9315 3.30839H43.0715V6.86839H44.9315C45.6648 6.86839 46.2181 6.71505 46.5915 6.40839C46.9648 6.10172 47.1515 5.66172 47.1515 5.08839Z" fill="#484574"/>
<path d="M58.3626 12.5684C57.1492 12.5684 56.0559 12.3151 55.0826 11.8084C54.1092 11.2884 53.3426 10.5751 52.7826 9.66839C52.2226 8.76172 51.9426 7.74172 51.9426 6.60839C51.9426 5.47506 52.2226 4.45506 52.7826 3.54839C53.3426 2.62839 54.1092 1.91505 55.0826 1.40839C56.0559 0.888388 57.1492 0.628388 58.3626 0.628388C59.4692 0.628388 60.4226 0.795055 61.2226 1.12839C62.0359 1.46172 62.7359 1.99505 63.3226 2.72839L61.2826 4.58839C60.5226 3.66839 59.5892 3.20839 58.4826 3.20839C57.5092 3.20839 56.7026 3.52172 56.0626 4.14839C55.4359 4.77506 55.1226 5.59506 55.1226 6.60839C55.1226 7.27506 55.2626 7.86839 55.5426 8.38839C55.8359 8.89506 56.2359 9.28839 56.7426 9.56839C57.2626 9.84839 57.8426 9.98839 58.4826 9.98839C59.5892 9.98839 60.5226 9.52839 61.2826 8.60839L63.3226 10.4684C62.7492 11.1884 62.0492 11.7217 61.2226 12.0684C60.4092 12.4017 59.4559 12.5684 58.3626 12.5684ZM70.6291 12.5684C69.4024 12.5684 68.2958 12.3151 67.3091 11.8084C66.3358 11.2884 65.5691 10.5751 65.0091 9.66839C64.4491 8.76172 64.1691 7.74172 64.1691 6.60839C64.1691 5.47506 64.4491 4.45506 65.0091 3.54839C65.5691 2.62839 66.3358 1.91505 67.3091 1.40839C68.2958 0.888388 69.4024 0.628388 70.6291 0.628388C71.8558 0.628388 72.9558 0.888388 73.9291 1.40839C74.9158 1.91505 75.6891 2.62839 76.2491 3.54839C76.8091 4.45506 77.0891 5.47506 77.0891 6.60839C77.0891 7.74172 76.8091 8.76172 76.2491 9.66839C75.6891 10.5751 74.9158 11.2884 73.9291 11.8084C72.9558 12.3151 71.8558 12.5684 70.6291 12.5684ZM70.6291 9.98839C71.2424 9.98839 71.7958 9.84172 72.2891 9.54839C72.7958 9.25506 73.1891 8.85506 73.4691 8.34839C73.7491 7.82839 73.8891 7.24839 73.8891 6.60839C73.8891 5.95505 73.7491 5.37505 73.4691 4.86839C73.1891 4.34839 72.7958 3.94172 72.2891 3.64839C71.7958 3.35505 71.2424 3.20839 70.6291 3.20839C70.0158 3.20839 69.4558 3.35505 68.9491 3.64839C68.4558 3.94172 68.0624 4.34839 67.7691 4.86839C67.4891 5.37505 67.3491 5.95505 67.3491 6.60839C67.3491 7.24839 67.4891 7.82839 67.7691 8.34839C68.0624 8.85506 68.4558 9.25506 68.9491 9.54839C69.4558 9.84172 70.0158 9.98839 70.6291 9.98839ZM89.8455 12.3484L89.8255 6.06839L86.7455 11.1284H85.3255L82.2655 6.26839V12.3484H79.3255V0.848388H81.9655L86.0855 7.52839L90.1055 0.848388H92.7655L92.8055 12.3484H89.8455ZM101.108 0.848388C102.695 0.848388 103.955 1.22839 104.888 1.98839C105.822 2.73506 106.288 3.76839 106.288 5.08839C106.288 6.39506 105.822 7.42839 104.888 8.18839C103.955 8.93506 102.695 9.30839 101.108 9.30839H99.0285V12.3484H95.8685V0.848388H101.108ZM100.888 6.86839C101.622 6.86839 102.175 6.71505 102.548 6.40839C102.922 6.10172 103.108 5.66172 103.108 5.08839C103.108 4.51506 102.922 4.07505 102.548 3.76839C102.175 3.46172 101.622 3.30839 100.888 3.30839H99.0285V6.86839H100.888ZM115.384 10.0684H110.004L109.044 12.3484H105.984L111.144 0.848388H114.264L119.444 12.3484H116.324L115.384 10.0684ZM114.424 7.78839L112.704 3.62839L110.964 7.78839H114.424ZM131.81 0.848388V12.3484H129.21L123.91 6.00839V12.3484H120.81V0.848388H123.41L128.71 7.20839V0.848388H131.81ZM140.932 8.52839V12.3484H137.772V8.52839L133.132 0.848388H136.472L139.452 5.74839L142.412 0.848388H145.592L140.932 8.52839Z" fill="#2D2B49"/>
</svg>
